<svg xmlns="http://www.w3.org/2000/svg" id="Layer_1" viewBox="0 0 32 32">
	<style>
		.st0{fill:#FFFFFF;}
	</style>
	<path d="M26 2c-2.8 0-5 2.2-5 5s2.2 5 5 5 5-2.2 5-5-2.2-5-5-5z"
		  class="st0"/>
	<path d="M27.3 22.2c0 3.3-2.7 6.1-6.1 6.1H10.8c-3.3 0-6.1-2.7-6.1-6.1V11.8c0-3.3 2.7-6.1 6.1-6.1h8.7c.1-.6.3-1.2.5-1.7h-9.2C6.5 4 3 7.5 3 11.8v10.4c0 4.3 3.5 7.8 7.8 7.8h10.4c4.3 0 7.8-3.5 7.8-7.8V13c-.5.2-1.1.4-1.7.4v8.8z"
		  class="st0"/>
	<path d="M20.4 12.6c-.8-1-1.7-1.6-2.9-1.8v-.5c0-.3-.1-.6-.4-.9-.1-.3-.4-.4-.8-.4s-.6.1-.9.4c-.2.2-.4.5-.4.9v.5c-1 .2-2 .8-2.8 1.8s-1.1 2.1-1.1 3.3v4.4l-1.6 1.6v.8h13.7v-.8l-1.6-1.6v-4.4c0-1.3-.4-2.3-1.2-3.3zM16.3 25c.4 0 .8-.2 1.1-.5.3-.3.4-.7.4-1.1h-3c0 .4.1.8.4 1.1.4.3.7.5 1.1.5z"
		  class="st0"/>
</svg>
