<?xml version="1.0" encoding="utf-8"?>
<!-- Generator: Adobe Illustrator 19.2.1, SVG Export Plug-In . SVG Version: 6.00 Build 0)  -->
<svg version="1.1" id="Layer_1" xmlns="http://www.w3.org/2000/svg" xmlns:xlink="http://www.w3.org/1999/xlink" x="0px" y="0px"
	 viewBox="0 0 32 32" style="enable-background:new 0 0 32 32;" xml:space="preserve">
<style type="text/css">
	.st0{opacity:0.25;fill:#FFFFFF;enable-background:new    ;}
	.st1{fill:#FFFFFF;}
</style>
<g>
	<path class="st0" d="M21.2,29.1H10.8c-3.8,0-6.9-3.1-6.9-6.9V11.8C3.9,8,7,4.9,10.8,4.9h10.4c3.8,0,6.9,3.1,6.9,6.9v10.4
		C28.1,26,25,29.1,21.2,29.1z"/>
	<path class="st1" d="M31,7c0,2.8-2.2,5-5,5s-5-2.2-5-5s2.2-5,5-5S31,4.2,31,7z M27.3,22.2c0,3.3-2.7,6.1-6.1,6.1H10.8
		c-3.3,0-6.1-2.7-6.1-6.1V11.8c0-3.3,2.7-6.1,6.1-6.1h8.7C19.6,5.1,19.8,4.5,20,4h-9.2C6.5,4,3,7.5,3,11.8v10.4
		c0,4.3,3.5,7.8,7.8,7.8h10.4c4.3,0,7.8-3.5,7.8-7.8V13c-0.5,0.2-1.1,0.4-1.7,0.4V22.2z M20.4,12.6c-0.8-1-1.7-1.6-2.9-1.8v-0.5
		c0-0.3-0.1-0.6-0.4-0.9C17,9.1,16.7,9,16.3,9s-0.6,0.1-0.9,0.4c-0.2,0.2-0.4,0.5-0.4,0.9v0.5C14,11,13,11.6,12.2,12.6
		s-1.1,2.1-1.1,3.3v4.4l-1.6,1.6v0.8h13.7v-0.8l-1.6-1.6v-4.4C21.6,14.6,21.2,13.6,20.4,12.6z M16.3,25c0.4,0,0.8-0.2,1.1-0.5
		c0.3-0.3,0.4-0.7,0.4-1.1h-3c0,0.4,0.1,0.8,0.4,1.1C15.6,24.8,15.9,25,16.3,25z"/>
</g>
</svg>
